<?xml version="1.0" encoding="utf-8"?>
<!-- Generator: Adobe Illustrator 16.0.3, SVG Export Plug-In . SVG Version: 6.00 Build 0)  -->
<!DOCTYPE svg PUBLIC "-//W3C//DTD SVG 1.1//EN" "http://www.w3.org/Graphics/SVG/1.1/DTD/svg11.dtd">
<svg version="1.1" id="Calque_2" xmlns="http://www.w3.org/2000/svg" xmlns:xlink="http://www.w3.org/1999/xlink" x="0px" y="0px"
	 width="746.035px" height="297.47px" viewBox="0 0 746.035 297.47" enable-background="new 0 0 746.035 297.47"
	 xml:space="preserve">
<g>
	<g>
		<polygon fill="#CFCCCB" points="117.99,0 2.673,115.3 6.226,118.855 69.597,55.493 131.15,117.034 134.702,113.482 73.149,51.941 
			117.99,7.099 232.409,121.519 235.962,117.966 		"/>
		<polygon fill="#CFCCCB" points="166.374,241.982 104.83,180.424 101.278,183.976 162.817,245.535 117.99,290.362 3.552,175.933 
			0,179.485 117.99,297.471 231.926,183.535 228.374,179.983 		"/>
	</g>
	<g>
		<path fill="#CFCCCB" d="M339.847,82.726V98.41h17.516v5.488h-17.516v26.09h-5.905V77.242h23.98v5.484H339.847z"/>
		<path fill="#CFCCCB" d="M418.779,76.328c15.189,0,27.641,12.307,27.641,27.355c0,14.911-12.375,27.221-27.5,27.221
			c-14.907,0-27.429-12.169-27.429-26.729C391.491,88.773,403.73,76.328,418.779,76.328z M418.779,125.416
			c12.027,0,21.664-9.704,21.664-21.732c0-12.096-9.566-21.8-21.447-21.8c-11.821,0-21.523,9.704-21.523,21.519
			C397.473,115.571,406.968,125.416,418.779,125.416z"/>
		<path fill="#CFCCCB" d="M489.283,124.5h14.484v5.488h-20.391V77.242h5.906V124.5z"/>
		<path fill="#CFCCCB" d="M544.131,124.5h14.486v5.488h-20.391V77.242h5.904V124.5z"/>
		<path fill="#CFCCCB" d="M614.748,76.328c15.189,0,27.641,12.307,27.641,27.355c0,14.911-12.375,27.221-27.5,27.221
			c-14.908,0-27.43-12.169-27.43-26.729C587.459,88.773,599.699,76.328,614.748,76.328z M614.748,125.416
			c12.027,0,21.664-9.704,21.664-21.732c0-12.096-9.566-21.8-21.447-21.8c-11.822,0-21.523,9.704-21.523,21.519
			C593.441,115.571,602.936,125.416,614.748,125.416z"/>
		<path fill="#CFCCCB" d="M692.021,116.769l16.525-42.199l15.617,42.267l15.467-39.595h6.404l-22.082,55.487L708.41,90.536
			l-16.6,42.193l-20.254-55.487h6.402L692.021,116.769z"/>
		<path fill="#CFCCCB" d="M372.063,163.078v15.684h17.516v5.487h-17.516v26.095h-5.905v-52.748h23.98v5.482H372.063z"/>
		<path fill="#CFCCCB" d="M455.699,210.343h-7.246l-15.895-23.139h-1.475v23.139h-5.906v-52.748h8.51
			c6.047,0,9.561,0.775,12.656,2.88c3.656,2.462,5.84,6.963,5.84,11.887c0,8.021-5.275,13.715-13.295,14.349L455.699,210.343z
			 M434.74,182.003c7.455,0,11.604-3.449,11.604-9.642c0-3.232-1.408-6.047-3.795-7.593c-1.904-1.197-4.295-1.691-7.945-1.691h-3.52
			v18.926H434.74z"/>
		<path fill="#CFCCCB" d="M495.635,210.343h-5.906v-52.748h5.906V210.343z"/>
		<path fill="#CFCCCB" d="M535.025,157.595h10.836c8.438,0,14.344,1.898,19.334,6.117c5.91,4.994,9.146,12.099,9.146,20.255
			s-3.236,15.194-9.354,20.259c-5.207,4.36-10.689,6.117-19.203,6.117h-10.76V157.595z M546.066,204.856
			c13.434,0,22.299-8.298,22.299-20.889c0-12.657-8.795-20.89-22.299-20.89h-5.135v41.778H546.066z"/>
		<path fill="#CFCCCB" d="M615.734,195.431l-6.334,14.912h-6.398l24.262-55.278l23.703,55.278h-6.473l-6.189-14.912H615.734z
			 M627.199,168.782l-9.078,21.161h17.863L627.199,168.782z"/>
		<path fill="#CFCCCB" d="M673.656,157.595h6.822l13.438,23.563l13.635-23.563h6.822l-17.578,30.027v22.721h-5.904v-22.721
			L673.656,157.595z"/>
	</g>
</g>
</svg>
