<?xml version="1.0" encoding="utf-8"?>
<!-- Generator: Adobe Illustrator 16.0.3, SVG Export Plug-In . SVG Version: 6.00 Build 0)  -->
<!DOCTYPE svg PUBLIC "-//W3C//DTD SVG 1.1//EN" "http://www.w3.org/Graphics/SVG/1.1/DTD/svg11.dtd">
<svg version="1.1" id="Calque_1" xmlns="http://www.w3.org/2000/svg" xmlns:xlink="http://www.w3.org/1999/xlink" x="0px" y="0px"
	 width="15.02px" height="12.205px" viewBox="0 0 15.02 12.205" enable-background="new 0 0 15.02 12.205" xml:space="preserve">
<g>
	<path fill="#3BA8DB" d="M14.523,1.753c-0.516,0.228-1.071,0.384-1.653,0.453c0.594-0.356,1.049-0.92,1.266-1.592
		c-0.556,0.33-1.173,0.569-1.829,0.698c-0.525-0.559-1.272-0.908-2.101-0.908c-1.588,0-2.877,1.289-2.877,2.877
		c0,0.226,0.026,0.445,0.074,0.656C5.011,3.817,2.892,2.671,1.473,0.93c-0.247,0.425-0.39,0.919-0.39,1.447
		c0,0.998,0.509,1.879,1.281,2.396c-0.473-0.015-0.917-0.145-1.305-0.36c0,0.012,0,0.024,0,0.036c0,1.395,0.992,2.558,2.309,2.822
		C3.127,7.336,2.872,7.371,2.611,7.371c-0.188,0-0.368-0.018-0.542-0.053c0.366,1.144,1.428,1.976,2.688,1.999
		C3.771,10.09,2.53,10.55,1.182,10.55c-0.231,0-0.461-0.014-0.687-0.04c1.274,0.816,2.786,1.292,4.412,1.292
		c5.294,0,8.188-4.385,8.188-8.188c0-0.125-0.004-0.249-0.009-0.373C13.648,2.837,14.137,2.329,14.523,1.753z"/>
</g>
</svg>
